<svg xmlns="http://www.w3.org/2000/svg" version="1.1" xmlns:xlink="http://www.w3.org/1999/xlink" xmlns:svgjs="http://svgjs.dev/svgjs" width="1000" height="1000" viewBox="0 0 1000 1000"><rect width="1000" height="1000" fill="#1f2d5a"></rect><g transform="matrix(0.7,0,0,0.7,149.57575757575756,396.454931231004)"><svg viewBox="0 0 396 118" data-background-color="#1f2d5a" preserveAspectRatio="xMidYMid meet" height="297" width="1000" xmlns="http://www.w3.org/2000/svg" xmlns:xlink="http://www.w3.org/1999/xlink"><g id="tight-bounds" transform="matrix(1,0,0,1,0.2400000000000091,-0.22983109792434675)"><svg viewBox="0 0 395.52 118.45966219584867" height="118.45966219584867" width="395.52"><g><svg viewBox="0 0 594.5678994523009 178.07522381071726" height="118.45966219584867" width="395.52"><g transform="matrix(1,0,0,1,199.0478994523009,24.61097521551882)"><svg viewBox="0 0 395.52 128.85327337967962" height="128.85327337967962" width="395.52"><g id="textblocktransform"><svg viewBox="0 0 395.52 128.85327337967962" height="128.85327337967962" width="395.52" id="textblock"><g><svg viewBox="0 0 395.52 69.49729858952902" height="69.49729858952902" width="395.52"><g transform="matrix(1,0,0,1,0,0)"><svg width="395.52" viewBox="0.95 -36.15 209.13000000000002 36.75" height="69.49729858952902" data-palette-color="#fbfbfb"><path d="M10.3 0L10.3-30.3 0.95-30.3 0.95-34.3 24.05-34.3 24.05-30.3 14.7-30.3 14.7 0 10.3 0ZM29.9 0.6Q27.2 0.6 25.1-1 23-2.6 23-6.8L23-6.8Q23-11.85 26.42-13.73 29.85-15.6 36.3-15.6L36.3-15.6 36.3-19Q36.3-21.05 35.4-22.15 34.5-23.25 32.15-23.25L32.15-23.25Q30-23.25 29.05-22.05 28.1-20.85 28.1-19.1L28.1-19.1 28.1-18.5 24.05-18.5Q24-18.8 24-19.6L24-19.6Q24-23.1 26.3-25 28.6-26.9 32.45-26.9L32.45-26.9Q36.4-26.9 38.4-25 40.4-23.1 40.4-19.55L40.4-19.55 40.4-4.8Q40.4-3.95 40.8-3.5 41.2-3.05 41.8-3.05L41.8-3.05 43.4-3.05 43.4-0.2Q42.3 0.4 40.7 0.4L40.7 0.4Q39.1 0.4 38.02-0.48 36.95-1.35 36.55-2.85L36.55-2.85 36.3-2.85Q35.3-1.2 33.62-0.3 31.95 0.6 29.9 0.6L29.9 0.6ZM30.85-3.05Q32.2-3.05 33.45-3.8 34.7-4.55 35.5-6.03 36.3-7.5 36.3-9.55L36.3-9.55 36.3-11.95Q31.8-11.95 29.55-10.93 27.3-9.9 27.3-7.05L27.3-7.05Q27.3-4.9 28.17-3.98 29.05-3.05 30.85-3.05L30.85-3.05ZM54.2 0.6Q49.95 0.6 47.84-1.63 45.74-3.85 45.74-7.1L45.74-7.1Q45.74-7.7 45.77-7.93 45.8-8.15 45.8-8.2L45.8-8.2 50.09-8.2 50.09-7.7Q50.09-5.35 51.3-4.17 52.49-3 54.39-3L54.39-3Q56.09-3 57.22-4.03 58.34-5.05 58.34-6.9L58.34-6.9Q58.34-8.3 57.64-9.2 56.95-10.1 55.95-10.63 54.95-11.15 53.14-11.8L53.14-11.8Q50.95-12.55 49.59-13.3 48.24-14.05 47.3-15.53 46.34-17 46.34-19.4L46.34-19.4Q46.34-22.85 48.57-24.88 50.8-26.9 54.55-26.9L54.55-26.9Q58.09-26.9 60.09-24.83 62.09-22.75 62.09-19.7L62.09-19.7 62.05-18.75 57.8-18.75 57.8-19.2Q57.8-20.95 56.95-22.13 56.09-23.3 54.14-23.3L54.14-23.3Q52.2-23.3 51.39-22.2 50.59-21.1 50.59-19.7L50.59-19.7Q50.59-18 51.77-17.18 52.95-16.35 55.39-15.55L55.39-15.55Q57.64-14.75 59.09-13.98 60.55-13.2 61.57-11.65 62.59-10.1 62.59-7.5L62.59-7.5Q62.59-3.45 60.32-1.43 58.05 0.6 54.2 0.6L54.2 0.6ZM67.59 0L67.59-36.15 71.69-36.15 71.69-14.1 80.19-26.3 84.74-26.3 76.99-15.5 85.14 0 80.49 0 74.49-12 71.69-8.95 71.69 0 67.59 0ZM88.09 0L88.09-26.3 91.19-26.3 91.74-23.25 92.04-23.25Q93.99-26.9 98.04-26.9L98.04-26.9Q102.29-26.9 103.64-23.1L103.64-23.1Q104.64-24.95 106.37-25.93 108.09-26.9 110.04-26.9L110.04-26.9Q116.24-26.9 116.24-18.95L116.24-18.95 116.24 0 112.14 0 112.14-18.65Q112.14-21.2 111.24-22.23 110.34-23.25 108.74-23.25L108.74-23.25Q106.84-23.25 105.54-21.3 104.24-19.35 104.24-16.05L104.24-16.05 104.24 0 100.14 0 100.14-18.65Q100.14-21.2 99.24-22.23 98.34-23.25 96.74-23.25L96.74-23.25Q94.84-23.25 93.52-21.3 92.19-19.35 92.19-16.05L92.19-16.05 92.19 0 88.09 0ZM127.84 0.6Q125.14 0.6 123.04-1 120.94-2.6 120.94-6.8L120.94-6.8Q120.94-11.85 124.36-13.73 127.79-15.6 134.24-15.6L134.24-15.6 134.24-19Q134.24-21.05 133.34-22.15 132.44-23.25 130.09-23.25L130.09-23.25Q127.94-23.25 126.99-22.05 126.04-20.85 126.04-19.1L126.04-19.1 126.04-18.5 121.99-18.5Q121.94-18.8 121.94-19.6L121.94-19.6Q121.94-23.1 124.24-25 126.54-26.9 130.39-26.9L130.39-26.9Q134.34-26.9 136.34-25 138.34-23.1 138.34-19.55L138.34-19.55 138.34-4.8Q138.34-3.95 138.74-3.5 139.14-3.05 139.74-3.05L139.74-3.05 141.34-3.05 141.34-0.2Q140.24 0.4 138.64 0.4L138.64 0.4Q137.04 0.4 135.96-0.48 134.89-1.35 134.49-2.85L134.49-2.85 134.24-2.85Q133.24-1.2 131.56-0.3 129.89 0.6 127.84 0.6L127.84 0.6ZM128.79-3.05Q130.14-3.05 131.39-3.8 132.64-4.55 133.44-6.03 134.24-7.5 134.24-9.55L134.24-9.55 134.24-11.95Q129.74-11.95 127.49-10.93 125.24-9.9 125.24-7.05L125.24-7.05Q125.24-4.9 126.11-3.98 126.99-3.05 128.79-3.05L128.79-3.05ZM152.14 0.6Q147.89 0.6 145.79-1.63 143.69-3.85 143.69-7.1L143.69-7.1Q143.69-7.7 143.71-7.93 143.74-8.15 143.74-8.2L143.74-8.2 148.04-8.2 148.04-7.7Q148.04-5.35 149.24-4.17 150.44-3 152.34-3L152.34-3Q154.04-3 155.16-4.03 156.29-5.05 156.29-6.9L156.29-6.9Q156.29-8.3 155.59-9.2 154.89-10.1 153.89-10.63 152.89-11.15 151.09-11.8L151.09-11.8Q148.89-12.55 147.54-13.3 146.19-14.05 145.24-15.53 144.29-17 144.29-19.4L144.29-19.4Q144.29-22.85 146.51-24.88 148.74-26.9 152.49-26.9L152.49-26.9Q156.04-26.9 158.04-24.83 160.04-22.75 160.04-19.7L160.04-19.7 159.99-18.75 155.74-18.75 155.74-19.2Q155.74-20.95 154.89-22.13 154.04-23.3 152.09-23.3L152.09-23.3Q150.14-23.3 149.34-22.2 148.54-21.1 148.54-19.7L148.54-19.7Q148.54-18 149.71-17.18 150.89-16.35 153.34-15.55L153.34-15.55Q155.59-14.75 157.04-13.98 158.49-13.2 159.51-11.65 160.54-10.1 160.54-7.5L160.54-7.5Q160.54-3.45 158.26-1.43 155.99 0.6 152.14 0.6L152.14 0.6ZM170.18 0.5Q167.68 0.5 166.58-1.23 165.48-2.95 165.48-5.55L165.48-5.55 165.48-22.65 163.23-22.65 163.23-26.3 165.48-26.3 166.38-33.6 169.58-33.6 169.58-26.3 173.13-26.3 173.13-22.65 169.58-22.65 169.58-5.45Q169.58-3.05 171.93-3.05L171.93-3.05 173.13-3.05 173.13-0.2Q172.58 0.1 171.76 0.3 170.93 0.5 170.18 0.5L170.18 0.5ZM185.98 0.6Q180.98 0.6 178.51-2.68 176.03-5.95 176.03-13.15L176.03-13.15Q176.03-20.2 178.48-23.55 180.93-26.9 185.93-26.9L185.93-26.9Q190.33-26.9 192.46-23.98 194.58-21.05 194.58-14.55L194.58-14.55 194.58-11.95 180.33-11.95Q180.38-7.35 181.76-5.2 183.13-3.05 186.08-3.05L186.08-3.05Q188.08-3.05 189.31-4.65 190.53-6.25 190.53-8.95L190.53-8.95 194.58-8.95Q194.58-4.55 192.21-1.98 189.83 0.6 185.98 0.6L185.98 0.6ZM180.38-15.6L190.28-15.6Q190.28-19.35 189.18-21.3 188.08-23.25 185.93-23.25L185.93-23.25Q183.28-23.25 181.96-21.38 180.63-19.5 180.38-15.6L180.38-15.6ZM199.73 0L199.73-26.3 202.83-26.3 203.38-22.85 203.68-22.85Q204.23-24.6 205.33-25.75 206.43-26.9 208.13-26.9L208.13-26.9Q209.18-26.9 210.08-26.5L210.08-26.5 210.08-22.25 208.73-22.25Q206.58-22.25 205.2-20.78 203.83-19.3 203.83-16.05L203.83-16.05 203.83 0 199.73 0Z" opacity="1" transform="matrix(1,0,0,1,0,0)" fill="#fbfbfb" class="wordmark-text-0" data-fill-palette-color="primary" id="text-0"></path></svg></g></svg></g><g transform="matrix(1,0,0,1,0,85.90394285135068)"><svg viewBox="0 0 95.08051512178584 42.949330528328936" height="42.949330528328936" width="95.08051512178584"><g transform="matrix(1,0,0,1,0,0)"><svg width="95.08051512178584" viewBox="1.25 -35.1 78.69 35.550000000000004" height="42.949330528328936" data-palette-color="#fbfbfb"><path d="M11.2-3.05Q12.85-3.05 14.8-4.05L14.8-4.05 15.25-3.75 14.85-1.15Q12.15 0.1 9.85 0.3L9.85 0.3Q7-0.25 5.75-1.8 4.5-3.35 4.5-6.3L4.5-6.3 4.65-9.85 4.6-20.2 1.45-20.2 1.25-20.5 1.5-22.85 4.55-22.85 4.55-26.55 8-28.05 8.4-27.7 8.3-22.85 15.1-22.85 15.3-22.55 15.05-20.2 8.3-20.2 8.05-6.65Q8-4.65 8.75-3.85 9.5-3.05 11.2-3.05L11.2-3.05ZM27.5-23.3Q30.75-23.3 32.62-21.7 34.5-20.1 34.5-17.3L34.5-17.3Q34.5-16.45 34.2-11.15L34.2-11.15Q33.9-5.85 33.9-4.95L33.9-4.95Q33.9-3.85 34.25-3.43 34.6-3 35.45-3L35.45-3Q36.2-3 37.15-3.3L37.15-3.3 37.55-2.95 37.15-0.7Q35.7 0.15 34.3 0.3L34.3 0.3Q32.75 0.15 31.82-0.8 30.9-1.75 30.85-3.4L30.85-3.4 30.5-3.4Q27.8-0.65 25.15 0.35L25.15 0.35Q21.8 0.35 19.92-1.33 18.05-3 18.05-5.9L18.05-5.9Q18.05-8.1 19.22-9.4 20.4-10.7 22.7-11.25L22.7-11.25 30.8-13.15 30.85-16.4Q30.85-18.35 29.82-19.4 28.8-20.45 26.9-20.45L26.9-20.45Q25.2-20.45 23.5-19.65 21.8-18.85 19.85-17.15L19.85-17.15 19.45-17.35 18.95-20.2Q23.1-23.3 27.5-23.3L27.5-23.3ZM30.75-10.6L23.5-8.85Q22.5-8.55 22.05-8.03 21.6-7.5 21.6-6.45L21.6-6.45Q21.6-4.8 22.52-3.88 23.45-2.95 25-2.95L25-2.95Q27.75-2.95 30.6-6.5L30.6-6.5 30.75-10.6ZM49.3-23.25Q52.15-23.25 54.8-22.15L54.8-22.15 54.25-18.9 53.65-18.75Q51.15-20.4 48.84-20.4L48.84-20.4Q47.15-20.4 46.09-19.45 45.05-18.5 45.05-17.15L45.05-17.15Q45.05-15.8 46.12-14.98 47.2-14.15 49.45-13.1L49.45-13.1Q51.4-12.2 52.57-11.48 53.75-10.75 54.59-9.55 55.45-8.35 55.45-6.6L55.45-6.6Q55.45-4.75 54.5-3.15 53.55-1.55 51.7-0.58 49.84 0.4 47.3 0.4L47.3 0.4Q43.8 0.4 40.65-1.25L40.65-1.25 41.15-4.65 41.59-4.95Q43-3.75 44.62-3.1 46.25-2.45 47.7-2.45L47.7-2.45Q49.55-2.45 50.7-3.48 51.84-4.5 51.84-5.9L51.84-5.9Q51.84-7.25 50.77-8.08 49.7-8.9 47.45-9.95L47.45-9.95Q45.5-10.85 44.3-11.58 43.09-12.3 42.25-13.55 41.4-14.8 41.4-16.65L41.4-16.65Q41.4-19.55 43.52-21.4 45.65-23.25 49.3-23.25L49.3-23.25ZM65.74-35.1L65.44-10.05 65.69 0 61.74 0 62.04-9.75 61.79-34.75 65.74-35.1ZM79.34-22.9L70.34-12.4Q73.79-7.75 79.94-0.7L79.94-0.7 79.94-0.25Q78.99 0.05 77.87 0.23 76.74 0.4 76.39 0.45L76.39 0.45 75.89 0.25Q70.24-6.45 66.39-12.05L66.39-12.05 66.39-12.4 73.54-20.85 74.84-22.9 79.34-22.9Z" opacity="1" transform="matrix(1,0,0,1,0,0)" fill="#fbfbfb" class="slogan-text-1" data-fill-palette-color="secondary" id="text-1"></path></svg></g></svg></g></svg></g></svg></g><g><svg viewBox="0 0 182.64125519047923 178.07522381071726" height="178.07522381071726" width="182.64125519047923"><g><svg xmlns="http://www.w3.org/2000/svg" xmlns:xlink="http://www.w3.org/1999/xlink" version="1.1" x="0" y="0" viewBox="10 11 80 78" style="enable-background:new 0 0 100 100;" xml:space="preserve" height="178.07522381071726" width="182.64125519047923" class="icon-icon-0" data-fill-palette-color="accent" id="icon-0"><g fill="#2f76db" data-fill-palette-color="accent"><path d="M81 11c-5 0-9 4-9 9s4 9 9 9 9-4 9-9S86 11 81 11zM81 27c-3.9 0-7-3.1-7-7s3.1-7 7-7 7 3.1 7 7S84.9 27 81 27z" fill="#2f76db" data-fill-palette-color="accent"></path><path d="M81 41c-2.6 0-4.9 1.1-6.6 2.9L57.3 25.3C58.4 23.8 59 22 59 20c0-5-4-9-9-9s-9 4-9 9 4 9 9 9c2.3 0 4.3-0.9 5.9-2.2l17.3 18.7C72.5 46.8 72 48.4 72 50c0 5 4 9 9 9s9-4 9-9S86 41 81 41zM50 27c-3.9 0-7-3.1-7-7s3.1-7 7-7 7 3.1 7 7S53.9 27 50 27zM81 57c-3.9 0-7-3.1-7-7s3.1-7 7-7 7 3.1 7 7S84.9 57 81 57z" fill="#2f76db" data-fill-palette-color="accent"></path><path d="M50 59c5 0 9-4 9-9s-4-9-9-9-9 4-9 9S45 59 50 59zM50 43c3.9 0 7 3.1 7 7s-3.1 7-7 7-7-3.1-7-7S46.1 43 50 43z" fill="#2f76db" data-fill-palette-color="accent"></path><path d="M19 89c5 0 9-4 9-9s-4-9-9-9-9 4-9 9S14 89 19 89zM19 73c3.9 0 7 3.1 7 7s-3.1 7-7 7-7-3.1-7-7S15.1 73 19 73z" fill="#2f76db" data-fill-palette-color="accent"></path><path d="M81 71c-4.6 0-8.4 3.5-8.9 8H58.9c-0.5-4.5-4.3-8-8.9-8-3.2 0-6 1.7-7.6 4.2l-18-18c2.2-1.6 3.6-4.3 3.6-7.2 0-4.6-3.5-8.4-8-8.9V28.9c4.5-0.5 8-4.3 8-8.9 0-5-4-9-9-9s-9 4-9 9c0 4.6 3.5 8.4 8 8.9v12.1c-4.5 0.5-8 4.3-8 8.9 0 5 4 9 9 9 1.3 0 2.5-0.3 3.6-0.7l18.9 18.9C41.2 78 41 79 41 80c0 5 4 9 9 9 4.6 0 8.4-3.5 8.9-8h13.1c0.5 4.5 4.3 8 8.9 8 5 0 9-4 9-9S86 71 81 71zM12 20c0-3.9 3.1-7 7-7s7 3.1 7 7-3.1 7-7 7S12 23.9 12 20zM12 50c0-3.9 3.1-7 7-7s7 3.1 7 7-3.1 7-7 7S12 53.9 12 50zM50 87c-3.9 0-7-3.1-7-7s3.1-7 7-7 7 3.1 7 7S53.9 87 50 87zM81 87c-3.9 0-7-3.1-7-7s3.1-7 7-7 7 3.1 7 7S84.9 87 81 87z" fill="#2f76db" data-fill-palette-color="accent"></path></g></svg></g></svg></g></svg></g><defs></defs></svg><rect width="395.52" height="118.45966219584867" fill="none" stroke="none" visibility="hidden"></rect></g></svg></g></svg>